<svg xmlns="http://www.w3.org/2000/svg" xmlns:xlink="http://www.w3.org/1999/xlink" viewBox="0 0 855.58 202.55"><defs><style>.cls-1{fill:url(#Orange_Jaune);}.cls-2{fill:url(#Orange_Jaune-2);}.cls-3{fill:url(#Orange_Jaune-3);}.cls-4{fill:url(#Dégradé_sans_nom_29);}.cls-5{fill:url(#Dégradé_sans_nom_29-2);}.cls-6{fill:url(#Dégradé_sans_nom_29-3);}.cls-7{fill:url(#Dégradé_sans_nom_29-4);}.cls-8{fill:url(#Dégradé_sans_nom_86);}.cls-9{fill:url(#Dégradé_sans_nom_29-5);}.cls-10{fill:url(#Dégradé_sans_nom_29-6);}.cls-11{fill:url(#Dégradé_sans_nom_29-7);}.cls-12{fill:url(#Dégradé_sans_nom_29-8);}.cls-13{fill:url(#Dégradé_sans_nom_29-9);}.cls-14{fill:url(#Dégradé_sans_nom_29-10);}.cls-15{fill:url(#Dégradé_sans_nom_29-11);}.cls-16{fill:url(#Dégradé_sans_nom_29-12);}.cls-17{fill:url(#Dégradé_sans_nom_29-13);}.cls-18{fill:url(#Dégradé_sans_nom_29-14);}.cls-19{fill:url(#Dégradé_sans_nom_29-15);}.cls-20{fill:url(#Dégradé_sans_nom_29-16);}.cls-21{fill:url(#Dégradé_sans_nom_29-17);}.cls-22{fill:url(#Dégradé_sans_nom_29-18);}.cls-23{fill:url(#Dégradé_sans_nom_29-19);}.cls-24{fill:url(#Dégradé_sans_nom_29-20);}.cls-25{fill:url(#Dégradé_sans_nom_29-21);}.cls-26{fill:url(#Dégradé_sans_nom_29-22);}.cls-27{fill:url(#Dégradé_sans_nom_29-23);}.cls-28{fill:url(#Dégradé_sans_nom_29-24);}.cls-29{fill:url(#Dégradé_sans_nom_29-32);}.cls-30{fill:url(#Dégradé_sans_nom_29-33);}.cls-31{fill:url(#Dégradé_sans_nom_29-34);}.cls-32{fill:url(#Dégradé_sans_nom_29-35);}.cls-33{fill:url(#Dégradé_sans_nom_29-36);}.cls-34{fill:url(#Dégradé_sans_nom_29-37);}.cls-35{fill:url(#Dégradé_sans_nom_29-38);}.cls-36{fill:url(#Dégradé_sans_nom_29-39);}.cls-37{fill:url(#Dégradé_sans_nom_29-40);}.cls-38{fill:url(#Dégradé_sans_nom_8);}.cls-39{fill:url(#Dégradé_sans_nom_8-2);}.cls-40{fill:url(#Dégradé_sans_nom_8-3);}</style><linearGradient id="Orange_Jaune" x1="0.02" y1="107.63" x2="91.73" y2="107.63" gradientUnits="userSpaceOnUse"><stop offset="0" stop-color="#fff33b"/><stop offset="0.04" stop-color="#fee72e"/><stop offset="0.12" stop-color="#fed51b"/><stop offset="0.2" stop-color="#fdca10"/><stop offset="0.28" stop-color="#fdc70c"/><stop offset="0.67" stop-color="#f3903f"/><stop offset="0.89" stop-color="#ed683c"/><stop offset="1" stop-color="#e93e3a"/></linearGradient><linearGradient id="Orange_Jaune-2" x1="43.21" y1="116.75" x2="171.76" y2="116.75" xlink:href="#Orange_Jaune"/><linearGradient id="Orange_Jaune-3" x1="110.08" y1="101.26" x2="251.56" y2="101.26" xlink:href="#Orange_Jaune"/><linearGradient id="Dégradé_sans_nom_29" x1="31.12" y1="288.33" x2="276.16" y2="-20.21" gradientUnits="userSpaceOnUse"><stop offset="0" stop-color="#f26522"/><stop offset="0.14" stop-color="#f26722" stop-opacity="0.98"/><stop offset="0.27" stop-color="#f36e24" stop-opacity="0.94"/><stop offset="0.4" stop-color="#f47926" stop-opacity="0.86"/><stop offset="0.52" stop-color="#f58928" stop-opacity="0.75"/><stop offset="0.64" stop-color="#f79d2c" stop-opacity="0.61"/><stop offset="0.76" stop-color="#f9b630" stop-opacity="0.43"/><stop offset="0.88" stop-color="#fcd235" stop-opacity="0.23"/><stop offset="1" stop-color="#fff33b" stop-opacity="0"/></linearGradient><linearGradient id="Dégradé_sans_nom_29-2" x1="0" y1="107.6" x2="91.69" y2="107.6" xlink:href="#Dégradé_sans_nom_29"/><linearGradient id="Dégradé_sans_nom_29-3" x1="43.24" y1="116.75" x2="171.79" y2="116.75" xlink:href="#Dégradé_sans_nom_29"/><linearGradient id="Dégradé_sans_nom_29-4" x1="229.08" y1="31.5" x2="179.9" y2="128.3" xlink:href="#Dégradé_sans_nom_29"/><linearGradient id="Dégradé_sans_nom_86" x1="66.1" y1="266.59" x2="265.45" y2="15.58" gradientUnits="userSpaceOnUse"><stop offset="0" stop-color="#fff33b" stop-opacity="0"/><stop offset="0.12" stop-color="#fcd235" stop-opacity="0.23"/><stop offset="0.24" stop-color="#f9b630" stop-opacity="0.43"/><stop offset="0.36" stop-color="#f79d2c" stop-opacity="0.61"/><stop offset="0.48" stop-color="#f58928" stop-opacity="0.75"/><stop offset="0.6" stop-color="#f47926" stop-opacity="0.86"/><stop offset="0.73" stop-color="#f36e24" stop-opacity="0.94"/><stop offset="0.86" stop-color="#f26722" stop-opacity="0.98"/><stop offset="1" stop-color="#f26522"/></linearGradient><linearGradient id="Dégradé_sans_nom_29-5" x1="6.39" y1="262.71" x2="190.67" y2="30.68" xlink:href="#Dégradé_sans_nom_29"/><linearGradient id="Dégradé_sans_nom_29-6" x1="-9.76" y1="193.18" x2="102.06" y2="52.38" xlink:href="#Dégradé_sans_nom_29"/><linearGradient id="Dégradé_sans_nom_29-7" x1="156.66" y1="53.96" x2="60.52" y2="216.1" xlink:href="#Dégradé_sans_nom_29"/><linearGradient id="Dégradé_sans_nom_29-8" x1="50.32" y1="114.49" x2="4.76" y2="157.97" xlink:href="#Dégradé_sans_nom_29"/><linearGradient id="Dégradé_sans_nom_29-9" x1="449.48" y1="-7.34" x2="125.4" y2="208.01" xlink:href="#Dégradé_sans_nom_29"/><linearGradient id="Dégradé_sans_nom_29-10" x1="459.4" y1="7.59" x2="135.33" y2="222.95" xlink:href="#Dégradé_sans_nom_29"/><linearGradient id="Dégradé_sans_nom_29-11" x1="468.33" y1="21.02" x2="144.26" y2="236.38" xlink:href="#Dégradé_sans_nom_29"/><linearGradient id="Dégradé_sans_nom_29-12" x1="476.04" y1="32.63" x2="151.97" y2="247.99" xlink:href="#Dégradé_sans_nom_29"/><linearGradient id="Dégradé_sans_nom_29-13" x1="481.66" y1="41.08" x2="157.59" y2="256.44" xlink:href="#Dégradé_sans_nom_29"/><linearGradient id="Dégradé_sans_nom_29-14" x1="495.11" y1="61.33" x2="171.04" y2="276.68" xlink:href="#Dégradé_sans_nom_29"/><linearGradient id="Dégradé_sans_nom_29-15" x1="503.87" y1="74.51" x2="179.8" y2="289.87" xlink:href="#Dégradé_sans_nom_29"/><linearGradient id="Dégradé_sans_nom_29-16" x1="722.86" y1="-11.75" x2="484.03" y2="115.95" xlink:href="#Dégradé_sans_nom_29"/><linearGradient id="Dégradé_sans_nom_29-17" x1="731.21" y1="3.87" x2="492.39" y2="131.57" xlink:href="#Dégradé_sans_nom_29"/><linearGradient id="Dégradé_sans_nom_29-18" x1="740.58" y1="21.39" x2="501.75" y2="149.08" xlink:href="#Dégradé_sans_nom_29"/><linearGradient id="Dégradé_sans_nom_29-19" x1="747.59" y1="34.49" x2="508.76" y2="162.19" xlink:href="#Dégradé_sans_nom_29"/><linearGradient id="Dégradé_sans_nom_29-20" x1="756.6" y1="51.36" x2="517.78" y2="179.05" xlink:href="#Dégradé_sans_nom_29"/><linearGradient id="Dégradé_sans_nom_29-21" x1="768.3" y1="73.22" x2="529.47" y2="200.92" xlink:href="#Dégradé_sans_nom_29"/><linearGradient id="Dégradé_sans_nom_29-22" x1="781.63" y1="98.17" x2="542.81" y2="225.87" xlink:href="#Dégradé_sans_nom_29"/><linearGradient id="Dégradé_sans_nom_29-23" x1="786.98" y1="108.18" x2="548.16" y2="235.87" xlink:href="#Dégradé_sans_nom_29"/><linearGradient id="Dégradé_sans_nom_29-24" x1="796.44" y1="125.86" x2="557.61" y2="253.56" xlink:href="#Dégradé_sans_nom_29"/><linearGradient id="Dégradé_sans_nom_29-32" x1="487.89" y1="92.05" x2="735" y2="213.54" xlink:href="#Dégradé_sans_nom_29"/><linearGradient id="Dégradé_sans_nom_29-33" x1="496.15" y1="75.24" x2="743.26" y2="196.72" xlink:href="#Dégradé_sans_nom_29"/><linearGradient id="Dégradé_sans_nom_29-34" x1="504.34" y1="58.6" x2="751.44" y2="180.08" xlink:href="#Dégradé_sans_nom_29"/><linearGradient id="Dégradé_sans_nom_29-35" x1="512.3" y1="42.39" x2="759.41" y2="163.88" xlink:href="#Dégradé_sans_nom_29"/><linearGradient id="Dégradé_sans_nom_29-36" x1="518.36" y1="30.08" x2="765.47" y2="151.56" xlink:href="#Dégradé_sans_nom_29"/><linearGradient id="Dégradé_sans_nom_29-37" x1="530.82" y1="4.72" x2="777.93" y2="126.21" xlink:href="#Dégradé_sans_nom_29"/><linearGradient id="Dégradé_sans_nom_29-38" x1="537.51" y1="-8.88" x2="784.62" y2="112.6" xlink:href="#Dégradé_sans_nom_29"/><linearGradient id="Dégradé_sans_nom_29-39" x1="547.61" y1="-29.42" x2="794.71" y2="92.07" xlink:href="#Dégradé_sans_nom_29"/><linearGradient id="Dégradé_sans_nom_29-40" x1="553.23" y1="-40.86" x2="800.34" y2="80.62" xlink:href="#Dégradé_sans_nom_29"/><radialGradient id="Dégradé_sans_nom_8" cx="46.1" cy="107.6" r="36.03" gradientUnits="userSpaceOnUse"><stop offset="0" stop-color="#d2d4d5" stop-opacity="0.79"/><stop offset="0.12" stop-color="#d5d7d8" stop-opacity="0.73"/><stop offset="0.33" stop-color="#dddedf" stop-opacity="0.6"/><stop offset="0.6" stop-color="#e9eaeb" stop-opacity="0.38"/><stop offset="0.93" stop-color="#fbfbfb" stop-opacity="0.07"/><stop offset="1" stop-color="#fff" stop-opacity="0"/></radialGradient><radialGradient id="Dégradé_sans_nom_8-2" cx="107.02" cy="116.75" r="66.7" xlink:href="#Dégradé_sans_nom_8"/><radialGradient id="Dégradé_sans_nom_8-3" cx="181.93" cy="101.26" r="78.4" xlink:href="#Dégradé_sans_nom_8"/></defs><title>WAVE_1</title><g id="Calque_2" data-name="Calque 2"><g id="Calque_1-2" data-name="Calque 1"><path class="cls-1" d="M91.73,62.27,56.15,143.45A17.25,17.25,0,0,1,40,153.77L0,153,33.9,77.13c.51-1.21,1.09-2.57,1.71-4C39.18,64.92,48,61.49,56.73,61.49Z"/><path class="cls-2" d="M71.54,202.55H43.21L114.59,44.1C117.94,36.16,126.72,31,135.34,31h36.42L106.5,179.71A38.19,38.19,0,0,1,71.54,202.55Z"/><path class="cls-3" d="M251.56,0l-1.82,4.22L172.55,179.71a38.19,38.19,0,0,1-35,22.81H110.08L193.66,13.67A21.58,21.58,0,0,1,213.7,0Z"/><path class="cls-4" d="M251.56,0l-1.82,4.22L239.55,27.33l-67,152.41a38.13,38.13,0,0,1-35,22.78h-27.5L193.66,13.67A21.58,21.58,0,0,1,213.7,0Z"/><path class="cls-5" d="M91.69,62.29,56.16,143.46A17.22,17.22,0,0,1,40,153.73l-14.41-.25h-.91L0,153,33.88,77.11c.5-1.16,1.08-2.57,1.74-4,3.56-8.2,12.05-11.68,21.12-11.68l10.1.25h.66Z"/><path class="cls-6" d="M171.79,31,106.52,179.74a38.22,38.22,0,0,1-35,22.78H43.24L114.55,44.07C117.95,36.2,126.73,31,135.34,31Z"/><path class="cls-7" d="M251.53,0l-1.82,4.22L239.52,27.33l-67,152.41a38.14,38.14,0,0,1-35,22.78L210.95,35,226.27,0Z"/><path class="cls-8" d="M239.52,27.33l-67,152.41a38.14,38.14,0,0,1-35,22.78L210.95,35a21.43,21.43,0,0,1,16.48-7.7Z"/><path class="cls-9" d="M167.07,41.83,106.52,179.74a38.22,38.22,0,0,1-35,22.78h-.33l65.11-147a21.58,21.58,0,0,1,20-13.67Z"/><path class="cls-10" d="M91.69,62.29,56.16,143.46A17.22,17.22,0,0,1,40,153.73l-14.41-.25L65.75,67.67c.74-1.9.86-4.38,2.1-5.95h-.34Z"/><path class="cls-11" d="M171.79,31l-4.72,10.85L106.52,179.74a38.22,38.22,0,0,1-35,22.78H68.5L145.53,31Z"/><path class="cls-12" d="M91.69,62.29,56.16,143.46A17.22,17.22,0,0,1,40,153.73l-15.32-.25L67.51,61.71Z"/><path class="cls-13" d="M306.41,108a16.1,16.1,0,0,1-3.78,5.5,17.76,17.76,0,0,1-5.82,3.65,20.07,20.07,0,0,1-7.43,1.33H276.51V84h12.88a20.57,20.57,0,0,1,7.43,1.3,17.59,17.59,0,0,1,5.82,3.63,16.16,16.16,0,0,1,3.78,5.48,17.26,17.26,0,0,1,1.33,6.8A17.48,17.48,0,0,1,306.41,108Zm-5.9-11.46a11.42,11.42,0,0,0-2.43-3.75,11,11,0,0,0-3.79-2.48,13.24,13.24,0,0,0-4.94-.89h-6.83V113h6.83a13.57,13.57,0,0,0,4.94-.87,10.88,10.88,0,0,0,3.79-2.43,11.15,11.15,0,0,0,2.43-3.72,13.35,13.35,0,0,0,0-9.46Z"/><path class="cls-14" d="M321.45,84v34.53h-6V84Z"/><path class="cls-15" d="M358.68,115.82a21.46,21.46,0,0,1-3.36,1.72,20.8,20.8,0,0,1-3.87,1.16,21.48,21.48,0,0,1-4.34.42,19.14,19.14,0,0,1-7.35-1.36,16.57,16.57,0,0,1-5.65-3.75,16.81,16.81,0,0,1-3.63-5.65,19.21,19.21,0,0,1-1.28-7.05,18.47,18.47,0,0,1,1.3-6.91,17.32,17.32,0,0,1,9.33-9.58A17.87,17.87,0,0,1,347,83.4a24.69,24.69,0,0,1,4.12.32,19.5,19.5,0,0,1,3.43.91,17.58,17.58,0,0,1,3,1.46,22.84,22.84,0,0,1,2.73,2l-3.85,4.59a21.06,21.06,0,0,0-2-1.53A12.69,12.69,0,0,0,352.24,90a13.62,13.62,0,0,0-2.49-.74,15.51,15.51,0,0,0-3-.27,10.3,10.3,0,0,0-4.42,1,10.89,10.89,0,0,0-3.55,2.65,12.64,12.64,0,0,0-2.37,3.91,13,13,0,0,0-.86,4.74,14.18,14.18,0,0,0,.83,4.94,11.39,11.39,0,0,0,2.39,3.93,11.08,11.08,0,0,0,3.7,2.6,11.83,11.83,0,0,0,4.81.94,14.27,14.27,0,0,0,4.61-.72,13,13,0,0,0,3.73-1.91v-6.5h-8.83V99.23h14.71v14.5A26.25,26.25,0,0,1,358.68,115.82Z"/><path class="cls-16" d="M375.77,84v34.53h-6V84Z"/><path class="cls-17" d="M399.64,118.53h-6.12V89.62h-11V84h28v5.62h-11Z"/><path class="cls-18" d="M445.62,118.53H439.2l-3.5-8.34H419.38l-3.56,8.34h-6.21L424.8,83.74h5.63ZM427.51,91l-5.92,13.82h11.89Z"/><path class="cls-19" d="M451.54,84h6V113h18.15v5.48H451.54Z"/><path class="cls-20" d="M517.54,118.53l-7.4-11h-6v11h-7.6V84h15.79q6.16,0,9.59,3a10.57,10.57,0,0,1,3.43,8.39v.1a10.84,10.84,0,0,1-2,6.84,11.84,11.84,0,0,1-5.35,3.87l8.44,12.34Zm.15-22.75a4.39,4.39,0,0,0-1.59-3.7,6.94,6.94,0,0,0-4.38-1.23h-7.55v9.91h7.69a6.3,6.3,0,0,0,4.32-1.33,4.51,4.51,0,0,0,1.5-3.55Z"/><path class="cls-21" d="M566,108.19a17.65,17.65,0,0,1-9.64,9.52,20,20,0,0,1-14.73,0,18.31,18.31,0,0,1-5.79-3.79,16.89,16.89,0,0,1-3.8-5.63,17.65,17.65,0,0,1-1.36-6.92v-.11a17.38,17.38,0,0,1,1.38-6.92,17.69,17.69,0,0,1,9.64-9.53,20.08,20.08,0,0,1,14.73,0,18.33,18.33,0,0,1,5.79,3.8,16.94,16.94,0,0,1,3.8,5.62,17.72,17.72,0,0,1,1.36,6.93v.1A17.42,17.42,0,0,1,566,108.19Zm-6.56-6.93a11.5,11.5,0,0,0-.77-4.19,10.38,10.38,0,0,0-2.17-3.45,10.53,10.53,0,0,0-3.33-2.35,10.11,10.11,0,0,0-4.19-.86,10.38,10.38,0,0,0-4.22.83,9.79,9.79,0,0,0-3.25,2.32A10.86,10.86,0,0,0,539.43,97a11.31,11.31,0,0,0-.77,4.17v.1a11.55,11.55,0,0,0,.77,4.2,10.35,10.35,0,0,0,5.48,5.79,9.94,9.94,0,0,0,4.21.87,10.3,10.3,0,0,0,4.2-.84A9.6,9.6,0,0,0,556.6,109a10.86,10.86,0,0,0,2.12-3.43,11.31,11.31,0,0,0,.77-4.17Z"/><path class="cls-22" d="M599.22,117.51a20.82,20.82,0,0,1-8.4,1.6,19.8,19.8,0,0,1-7.38-1.33,17.1,17.1,0,0,1-5.73-3.7,16.77,16.77,0,0,1-3.72-5.62,18.57,18.57,0,0,1-1.33-7.1v-.11A17.68,17.68,0,0,1,583.51,84.8a18.45,18.45,0,0,1,7.26-1.4,25.84,25.84,0,0,1,4.21.32,20.42,20.42,0,0,1,3.53.91,16.69,16.69,0,0,1,3.06,1.48,23.22,23.22,0,0,1,2.77,2l-4.79,5.78a19.6,19.6,0,0,0-2-1.48,12.42,12.42,0,0,0-2-1.08,12.1,12.1,0,0,0-2.3-.7,14,14,0,0,0-2.71-.24,8.77,8.77,0,0,0-3.87.87,10.49,10.49,0,0,0-3.15,2.32A10.61,10.61,0,0,0,581.36,97a11.35,11.35,0,0,0-.77,4.17v.1a12.16,12.16,0,0,0,.77,4.38,10.36,10.36,0,0,0,2.17,3.49,9.88,9.88,0,0,0,3.31,2.31,10.58,10.58,0,0,0,4.21.81,11.94,11.94,0,0,0,7.15-2.09v-5h-7.64V98.64h15v15A25.19,25.19,0,0,1,599.22,117.51Z"/><path class="cls-23" d="M641.34,110.34a12.78,12.78,0,0,1-3,4.85,12.35,12.35,0,0,1-4.78,2.91,19.35,19.35,0,0,1-6.27,1q-7,0-11-3.85t-4-11.49V84h7.6v19.53c0,2.83.66,5,2,6.39a7.08,7.08,0,0,0,5.48,2.14,7.18,7.18,0,0,0,5.48-2.07q2-2.07,2-6.22V84h7.6v19.49A19.93,19.93,0,0,1,641.34,110.34Z"/><path class="cls-24" d="M650.15,118.53V84h26v6.75h-18.5v7h16.28v6.76H657.65v7.25H676.4v6.76Z"/><path class="cls-25" d="M735.93,118.77h-6.61l-7.8-22.59-7.79,22.59h-6.61L695.34,84h8.14l7.16,23.38,7.74-23.48h6.51l7.75,23.48L739.78,84h7.94Z"/><path class="cls-26" d="M779.06,118.53l-3.16-7.75h-14.6l-3.15,7.75h-7.75l14.8-34.78h7L787,118.53ZM768.6,92.88,764,104.07h9.17Z"/><path class="cls-27" d="M810,118.77h-6.71L789.36,84h8.39l9,24.32,9-24.32H824Z"/><path class="cls-28" d="M829.33,118.53V84h26v6.75h-18.5v7h16.28v6.76H836.83v7.25h18.75v6.76Z"/><path class="cls-13" d="M306.41,108a16.1,16.1,0,0,1-3.78,5.5,17.76,17.76,0,0,1-5.82,3.65,20.07,20.07,0,0,1-7.43,1.33H276.51V84h12.88a20.57,20.57,0,0,1,7.43,1.3,17.59,17.59,0,0,1,5.82,3.63,16.16,16.16,0,0,1,3.78,5.48,17.26,17.26,0,0,1,1.33,6.8A17.48,17.48,0,0,1,306.41,108Zm-5.9-11.46a11.42,11.42,0,0,0-2.43-3.75,11,11,0,0,0-3.79-2.48,13.24,13.24,0,0,0-4.94-.89h-6.83V113h6.83a13.57,13.57,0,0,0,4.94-.87,10.88,10.88,0,0,0,3.79-2.43,11.15,11.15,0,0,0,2.43-3.72,13.35,13.35,0,0,0,0-9.46Z"/><path class="cls-14" d="M321.45,84v34.53h-6V84Z"/><path class="cls-15" d="M358.68,115.82a21.46,21.46,0,0,1-3.36,1.72,20.8,20.8,0,0,1-3.87,1.16,21.48,21.48,0,0,1-4.34.42,19.14,19.14,0,0,1-7.35-1.36,16.57,16.57,0,0,1-5.65-3.75,16.81,16.81,0,0,1-3.63-5.65,19.21,19.21,0,0,1-1.28-7.05,18.47,18.47,0,0,1,1.3-6.91,17.32,17.32,0,0,1,9.33-9.58A17.87,17.87,0,0,1,347,83.4a24.69,24.69,0,0,1,4.12.32,19.5,19.5,0,0,1,3.43.91,17.58,17.58,0,0,1,3,1.46,22.84,22.84,0,0,1,2.73,2l-3.85,4.59a21.06,21.06,0,0,0-2-1.53A12.69,12.69,0,0,0,352.24,90a13.62,13.62,0,0,0-2.49-.74,15.51,15.51,0,0,0-3-.27,10.3,10.3,0,0,0-4.42,1,10.89,10.89,0,0,0-3.55,2.65,12.64,12.64,0,0,0-2.37,3.91,13,13,0,0,0-.86,4.74,14.18,14.18,0,0,0,.83,4.94,11.39,11.39,0,0,0,2.39,3.93,11.08,11.08,0,0,0,3.7,2.6,11.83,11.83,0,0,0,4.81.94,14.27,14.27,0,0,0,4.61-.72,13,13,0,0,0,3.73-1.91v-6.5h-8.83V99.23h14.71v14.5A26.25,26.25,0,0,1,358.68,115.82Z"/><path class="cls-16" d="M375.77,84v34.53h-6V84Z"/><path class="cls-17" d="M399.64,118.53h-6.12V89.62h-11V84h28v5.62h-11Z"/><path class="cls-18" d="M445.62,118.53H439.2l-3.5-8.34H419.38l-3.56,8.34h-6.21L424.8,83.74h5.63ZM427.51,91l-5.92,13.82h11.89Z"/><path class="cls-19" d="M451.54,84h6V113h18.15v5.48H451.54Z"/><path class="cls-29" d="M517.54,118.53l-7.4-11h-6v11h-7.6V84h15.79q6.16,0,9.59,3a10.57,10.57,0,0,1,3.43,8.39v.1a10.84,10.84,0,0,1-2,6.84,11.84,11.84,0,0,1-5.35,3.87l8.44,12.34Zm.15-22.75a4.39,4.39,0,0,0-1.59-3.7,6.94,6.94,0,0,0-4.38-1.23h-7.55v9.91h7.69a6.3,6.3,0,0,0,4.32-1.33,4.51,4.51,0,0,0,1.5-3.55Z"/><path class="cls-30" d="M566,108.19a17.65,17.65,0,0,1-9.64,9.52,20,20,0,0,1-14.73,0,18.31,18.31,0,0,1-5.79-3.79,16.89,16.89,0,0,1-3.8-5.63,17.65,17.65,0,0,1-1.36-6.92v-.11a17.38,17.38,0,0,1,1.38-6.92,17.69,17.69,0,0,1,9.64-9.53,20.08,20.08,0,0,1,14.73,0,18.33,18.33,0,0,1,5.79,3.8,16.94,16.94,0,0,1,3.8,5.62,17.72,17.72,0,0,1,1.36,6.93v.1A17.42,17.42,0,0,1,566,108.19Zm-6.56-6.93a11.5,11.5,0,0,0-.77-4.19,10.38,10.38,0,0,0-2.17-3.45,10.53,10.53,0,0,0-3.33-2.35,10.11,10.11,0,0,0-4.19-.86,10.38,10.38,0,0,0-4.22.83,9.79,9.79,0,0,0-3.25,2.32A10.86,10.86,0,0,0,539.43,97a11.31,11.31,0,0,0-.77,4.17v.1a11.55,11.55,0,0,0,.77,4.2,10.35,10.35,0,0,0,5.48,5.79,9.94,9.94,0,0,0,4.21.87,10.3,10.3,0,0,0,4.2-.84A9.6,9.6,0,0,0,556.6,109a10.86,10.86,0,0,0,2.12-3.43,11.31,11.31,0,0,0,.77-4.17Z"/><path class="cls-31" d="M599.22,117.51a20.82,20.82,0,0,1-8.4,1.6,19.8,19.8,0,0,1-7.38-1.33,17.1,17.1,0,0,1-5.73-3.7,16.77,16.77,0,0,1-3.72-5.62,18.57,18.57,0,0,1-1.33-7.1v-.11A17.68,17.68,0,0,1,583.51,84.8a18.45,18.45,0,0,1,7.26-1.4,25.84,25.84,0,0,1,4.21.32,20.42,20.42,0,0,1,3.53.91,16.69,16.69,0,0,1,3.06,1.48,23.22,23.22,0,0,1,2.77,2l-4.79,5.78a19.6,19.6,0,0,0-2-1.48,12.42,12.42,0,0,0-2-1.08,12.1,12.1,0,0,0-2.3-.7,14,14,0,0,0-2.71-.24,8.77,8.77,0,0,0-3.87.87,10.49,10.49,0,0,0-3.15,2.32A10.61,10.61,0,0,0,581.36,97a11.35,11.35,0,0,0-.77,4.17v.1a12.16,12.16,0,0,0,.77,4.38,10.36,10.36,0,0,0,2.17,3.49,9.88,9.88,0,0,0,3.31,2.31,10.58,10.58,0,0,0,4.21.81,11.94,11.94,0,0,0,7.15-2.09v-5h-7.64V98.64h15v15A25.19,25.19,0,0,1,599.22,117.51Z"/><path class="cls-32" d="M641.34,110.34a12.78,12.78,0,0,1-3,4.85,12.35,12.35,0,0,1-4.78,2.91,19.35,19.35,0,0,1-6.27,1q-7,0-11-3.85t-4-11.49V84h7.6v19.53c0,2.83.66,5,2,6.39a7.08,7.08,0,0,0,5.48,2.14,7.18,7.18,0,0,0,5.48-2.07q2-2.07,2-6.22V84h7.6v19.49A19.93,19.93,0,0,1,641.34,110.34Z"/><path class="cls-33" d="M650.15,118.53V84h26v6.75h-18.5v7h16.28v6.76H657.65v7.25H676.4v6.76Z"/><path class="cls-34" d="M735.93,118.77h-6.61l-7.8-22.59-7.79,22.59h-6.61L695.34,84h8.14l7.16,23.38,7.74-23.48h6.51l7.75,23.48L739.78,84h7.94Z"/><path class="cls-35" d="M779.06,118.53l-3.16-7.75h-14.6l-3.15,7.75h-7.75l14.8-34.78h7L787,118.53ZM768.6,92.88,764,104.07h9.17Z"/><path class="cls-36" d="M810,118.77h-6.71L789.36,84h8.39l9,24.32,9-24.32H824Z"/><path class="cls-37" d="M829.33,118.53V84h26v6.75h-18.5v7h16.28v6.76H836.83v7.25h18.75v6.76Z"/><path class="cls-38" d="M67.51,61.71Q46.8,107.92,24.68,153.48,45.39,107.26,67.51,61.71Z"/><polygon class="cls-39" points="145.53 30.98 107.39 116.92 68.5 202.52 106.64 116.58 145.53 30.98"/><polygon class="cls-40" points="226.27 0 182.35 101.44 137.59 202.52 181.52 101.08 226.27 0"/></g></g></svg>